<?xml version="1.0" standalone="no"?>
<!DOCTYPE svg PUBLIC "-//W3C//DTD SVG 20010904//EN"
 "http://www.w3.org/TR/2001/REC-SVG-20010904/DTD/svg10.dtd">
<svg version="1.0" xmlns="http://www.w3.org/2000/svg"
 width="64.000000pt" height="64.000000pt" viewBox="0 0 64.000000 64.000000"
 preserveAspectRatio="xMidYMid meet">
<g transform="translate(0.000000,64.000000) scale(0.100000,-0.100000)"
fill="#000000" stroke="none">
<path d="M406 613 c-4 -4 -69 -40 -144 -78 l-137 -71 0 -138 0 -138 40 -22
c119 -67 268 -137 280 -132 12 4 15 31 15 140 0 83 -4 137 -10 141 -8 5 -8 11
0 20 7 8 10 61 8 146 -3 126 -4 134 -23 137 -12 2 -24 -1 -29 -5z m34 -138 c0
-107 -2 -127 -16 -132 -9 -3 -24 -2 -33 4 -9 5 -63 34 -120 63 l-104 53 74 37
c41 21 99 52 129 69 30 17 58 31 63 31 4 0 7 -56 7 -125z m-175 -85 c61 -32
109 -63 108 -67 -1 -8 -211 -121 -225 -122 -5 -1 -8 55 -8 124 0 69 3 125 8
125 4 -1 57 -27 117 -60z m173 -213 c1 -70 0 -127 -3 -127 -4 0 -251 127 -263
135 -7 5 235 124 248 122 12 -2 16 -26 18 -130z"/>
</g>
</svg>
